<?xml version="1.0" encoding="UTF-8" standalone="no"?>
<!-- Created with Inkscape (http://www.inkscape.org/) -->

<svg
   xmlns:dc="http://purl.org/dc/elements/1.1/"
   xmlns:cc="http://creativecommons.org/ns#"
   xmlns:rdf="http://www.w3.org/1999/02/22-rdf-syntax-ns#"
   xmlns:svg="http://www.w3.org/2000/svg"
   xmlns="http://www.w3.org/2000/svg"
   xmlns:sodipodi="http://sodipodi.sourceforge.net/DTD/sodipodi-0.dtd"
   xmlns:inkscape="http://www.inkscape.org/namespaces/inkscape"
   width="40"
   height="40"
   id="svg4621"
   version="1.1"
   inkscape:version="0.48.4 r9939"
   sodipodi:docname="player.svg">
  <defs
     id="defs4623" />
  <sodipodi:namedview
     id="base"
     pagecolor="#ffffff"
     bordercolor="#666666"
     borderopacity="1.0"
     inkscape:pageopacity="0.0"
     inkscape:pageshadow="2"
     inkscape:zoom="9.1328123"
     inkscape:cx="55.480746"
     inkscape:cy="11.922684"
     inkscape:document-units="px"
     inkscape:current-layer="layer1"
     showgrid="true"
     inkscape:snap-bbox="false"
     showguides="false"
     inkscape:window-width="1680"
     inkscape:window-height="1026"
     inkscape:window-x="0"
     inkscape:window-y="24"
     inkscape:window-maximized="1">
    <inkscape:grid
       empspacing="5"
       visible="true"
       enabled="true"
       snapvisiblegridlinesonly="true"
       type="xygrid"
       id="grid4642" />
  </sodipodi:namedview>
  <metadata
     id="metadata4626">
    <rdf:RDF>
      <cc:Work
         rdf:about="">
        <dc:format>image/svg+xml</dc:format>
        <dc:type
           rdf:resource="http://purl.org/dc/dcmitype/StillImage" />
        <dc:title />
      </cc:Work>
    </rdf:RDF>
  </metadata>
  <g
     inkscape:label="Layer 1"
     inkscape:groupmode="layer"
     id="layer1"
     transform="translate(0,-1012.3622)">
    <rect
       style="fill:#3498db;fill-opacity:1"
       id="rect2993"
       width="40"
       height="40.000019"
       x="0"
       y="1012.3622" />
    <path
       style="fill:#ecf0f1;fill-opacity:1;fill-rule:evenodd;stroke:none"
       d="m 4.381223,1030.5128 c 0.051389,0.6494 0.1156316,1.3033 0.2363119,1.9567 1.7243001,9.3344 10.0287911,15.2891 18.5336071,13.3116 6.89932,-1.6044 11.833486,-7.9494 12.524533,-15.2683 l -31.294452,0 z"
       id="path3828"
       inkscape:connector-curvature="0" />
    <path
       style="fill:#ecf0f1;fill-opacity:1;fill-rule:evenodd;stroke:none"
       d="m 4.381223,1017.9951 c 0.024669,0.3117 0.055498,0.6256 0.1134299,0.9391 0.827664,4.4806 4.8138211,7.3388 8.8961311,6.3895 3.311674,-0.7699 5.680073,-3.8155 6.011776,-7.3286 l -15.021337,0 z"
       id="path3828-8"
       inkscape:connector-curvature="0" />
    <path
       style="fill:#000000;fill-opacity:1;fill-rule:evenodd;stroke:none"
       d="M 20.65625 5.625 C 20.68091 5.9367 20.723309 6.249 20.78125 6.5625 C 21.608912 11.0431 25.57394 13.91805 29.65625 12.96875 C 32.967924 12.19885 35.355797 9.1381 35.6875 5.625 L 29.84375 5.625 C 29.946943 5.898998 30 6.1899127 30 6.5 C 30 7.8807119 28.880712 9 27.5 9 C 26.119288 9 25 7.8807119 25 6.5 C 25 6.1899127 25.053057 5.898998 25.15625 5.625 L 20.65625 5.625 z "
       transform="translate(0,1012.3622)"
       id="path3828-8-7" />
    <path
       inkscape:connector-curvature="0"
       style="fill:#000000;fill-opacity:1;fill-rule:evenodd;stroke:none"
       d="m 4.3832335,1018.0014 c 0.02466,0.3117 0.06706,0.624 0.125,0.9375 0.827662,4.4806 4.79269,7.3556 8.8750005,6.4063 3.311674,-0.7699 5.699547,-3.8307 6.03125,-7.3438 l -5.84375,0 c 0.103193,0.274 0.15625,0.5649 0.15625,0.875 0,1.3807 -1.119288,2.5 -2.5,2.5 -1.3807125,0 -2.5000005,-1.1193 -2.5000005,-2.5 0,-0.3101 0.05306,-0.601 0.15625,-0.875 l -4.5,0 z"
       id="path3828-8-7-6" />
    <path
       style="fill:#ecf0f1;fill-opacity:1;fill-rule:evenodd;stroke:none"
       d="m 20.641275,1017.9386 c 0.02467,0.3117 0.0555,0.6256 0.11343,0.9391 0.827664,4.4806 4.813821,7.3388 8.896131,6.3895 3.311674,-0.7699 5.680073,-3.8155 6.011776,-7.3286 l -15.021337,0 z"
       id="path3828-8-5"
       inkscape:connector-curvature="0" />
    <path
       inkscape:connector-curvature="0"
       style="fill:#000000;fill-opacity:1;fill-rule:evenodd;stroke:none"
       d="m 20.643285,1017.9449 c 0.02466,0.3117 0.06706,0.624 0.125,0.9375 0.827662,4.4806 4.79269,7.3556 8.875001,6.4063 3.311674,-0.7699 5.699547,-3.8307 6.03125,-7.3438 l -5.84375,0 c 0.103193,0.274 0.15625,0.5649 0.15625,0.875 0,1.3807 -1.119288,2.5 -2.5,2.5 -1.380713,0 -2.500001,-1.1193 -2.500001,-2.5 0,-0.3101 0.05306,-0.601 0.15625,-0.875 l -4.5,0 z"
       id="path3828-8-7-6-2" />
  </g>
</svg>
