<?xml version="1.0" encoding="UTF-8" standalone="no"?>
<!-- Created with Inkscape (http://www.inkscape.org/) -->

<svg
   xmlns:dc="http://purl.org/dc/elements/1.1/"
   xmlns:cc="http://creativecommons.org/ns#"
   xmlns:rdf="http://www.w3.org/1999/02/22-rdf-syntax-ns#"
   xmlns:svg="http://www.w3.org/2000/svg"
   xmlns="http://www.w3.org/2000/svg"
   xmlns:sodipodi="http://sodipodi.sourceforge.net/DTD/sodipodi-0.dtd"
   xmlns:inkscape="http://www.inkscape.org/namespaces/inkscape"
   width="60"
   height="60"
   id="svg3925"
   version="1.1"
   inkscape:version="0.48.4 r9939"
   sodipodi:docname="replay.svg">
  <defs
     id="defs3927" />
  <sodipodi:namedview
     id="base"
     pagecolor="#ffffff"
     bordercolor="#666666"
     borderopacity="1.0"
     inkscape:pageopacity="0.0"
     inkscape:pageshadow="2"
     inkscape:zoom="7"
     inkscape:cx="9.7286564"
     inkscape:cy="19.885951"
     inkscape:current-layer="layer1"
     showgrid="true"
     inkscape:grid-bbox="true"
     inkscape:document-units="px"
     inkscape:snap-grids="true"
     inkscape:snap-to-guides="true"
     inkscape:snap-bbox="true"
     inkscape:window-width="1440"
     inkscape:window-height="876"
     inkscape:window-x="0"
     inkscape:window-y="24"
     inkscape:window-maximized="1">
    <inkscape:grid
       type="xygrid"
       id="grid3935"
       empspacing="5"
       visible="true"
       enabled="true"
       snapvisiblegridlinesonly="true" />
  </sodipodi:namedview>
  <metadata
     id="metadata3930">
    <rdf:RDF>
      <cc:Work
         rdf:about="">
        <dc:format>image/svg+xml</dc:format>
        <dc:type
           rdf:resource="http://purl.org/dc/dcmitype/StillImage" />
      </cc:Work>
    </rdf:RDF>
  </metadata>
  <g
     id="layer1"
     inkscape:label="Layer 1"
     inkscape:groupmode="layer"
     transform="translate(0,12)">
    <path
       style="fill:#ffffff;fill-opacity:1;stroke:none"
       d="M 30 0 C 13.431458 0 0 13.431458 0 30 C 2.3684758e-15 46.568542 13.431458 60 30 60 C 46.568542 60 60 46.568542 60 30 C 60 13.431458 46.568542 -7.1054274e-15 30 0 z M 30 11 C 38.397552 11 45.520031 16.445731 48.03125 24 L 51 24 L 48 28 C 46.350094 30.190768 44.979355 31.989996 44.96875 32 C 44.95812 32.0099 43.636712 30.225209 42 28.03125 C 40.363287 25.83729 39.005552 24.013466 39 24 C 38.996375 23.991234 41.135143 24.001249 42.625 24 C 40.375288 19.277461 35.579421 16 30 16 C 22.268013 16 16 22.268014 16 30 C 16 37.731986 22.268013 44 30 44 C 36.337678 44 41.681337 39.776844 43.40625 34 L 48.59375 34 C 46.761927 42.57938 39.126 49 30 49 C 19.506589 49 11 40.49341 11 30 C 11 19.50659 19.506589 11 30 11 z "
       transform="translate(0,-12)"
       id="path2994" />
  </g>
</svg>
