<?xml version="1.0" encoding="UTF-8" standalone="no"?>
<!-- Created with Inkscape (http://www.inkscape.org/) -->

<svg
   xmlns:dc="http://purl.org/dc/elements/1.1/"
   xmlns:cc="http://creativecommons.org/ns#"
   xmlns:rdf="http://www.w3.org/1999/02/22-rdf-syntax-ns#"
   xmlns:svg="http://www.w3.org/2000/svg"
   xmlns="http://www.w3.org/2000/svg"
   version="1.1"
   width="64"
   height="64"
   id="svg3120">
  <defs
     id="defs3122" />
  <metadata
     id="metadata3125">
    <rdf:RDF>
      <cc:Work
         rdf:about="">
        <dc:format>image/svg+xml</dc:format>
        <dc:type
           rdf:resource="http://purl.org/dc/dcmitype/StillImage" />
        <dc:title></dc:title>
      </cc:Work>
    </rdf:RDF>
  </metadata>
  <path
     d="m 57.181818,32.5 a 25.454546,25.045454 0 1 1 -50.9090919,0 25.454546,25.045454 0 1 1 50.9090919,0 z"
     transform="matrix(1.2535714,0,0,1.2813067,-7.7724022,-9.5515593)"
     id="path3131"
     style="fill:#ecf0f1;fill-opacity:1" />
  <path
     d="m 35.363636,12.363636 a 4.318182,4.3636365 0 1 1 -8.636364,0 4.318182,4.3636365 0 1 1 8.636364,0 z"
     transform="matrix(3.6315789,0,0,3.5104166,-80.789469,-11.083332)"
     id="path3911"
     style="fill:#3498db;fill-opacity:1" />
  <rect
     width="8.272727"
     height="48.181816"
     x="27.727272"
     y="8.272727"
     id="rect3932"
     style="fill:#3498e0;fill-opacity:1" />
  <rect
     width="8.272727"
     height="48.181816"
     x="27.863636"
     y="-55.999996"
     transform="matrix(0,1,-1,0,0,0)"
     id="rect3932-7"
     style="fill:#3498e0;fill-opacity:1" />
  <rect
     width="8.272727"
     height="48.181816"
     x="41.504166"
     y="-23.705212"
     transform="matrix(0.70710678,0.70710678,-0.70710678,0.70710678,0,0)"
     id="rect3932-7-8"
     style="fill:#3498e0;fill-opacity:1" />
  <rect
     width="8.272727"
     height="48.181816"
     x="-4.5220599"
     y="21.549622"
     transform="matrix(0.70710678,-0.70710678,0.70710678,0.70710678,0,0)"
     id="rect3932-7-8-5"
     style="fill:#3498e0;fill-opacity:1" />
  <path
     d="m 38.090908,32.909092 a 5.6363635,5.6363635 0 1 1 -11.272727,0 5.6363635,5.6363635 0 1 1 11.272727,0 z"
     transform="translate(-0.18181821,-0.2727273)"
     id="path4035"
     style="fill:#ecf0f1;fill-opacity:1" />
</svg>
