<?xml version="1.0" encoding="UTF-8" standalone="no"?>
<!-- Created with Inkscape (http://www.inkscape.org/) -->

<svg
   xmlns:dc="http://purl.org/dc/elements/1.1/"
   xmlns:cc="http://creativecommons.org/ns#"
   xmlns:rdf="http://www.w3.org/1999/02/22-rdf-syntax-ns#"
   xmlns:svg="http://www.w3.org/2000/svg"
   xmlns="http://www.w3.org/2000/svg"
   xmlns:sodipodi="http://sodipodi.sourceforge.net/DTD/sodipodi-0.dtd"
   xmlns:inkscape="http://www.inkscape.org/namespaces/inkscape"
   version="1.1"
   width="65"
   height="65"
   id="svg3120"
   inkscape:version="0.48.4 r9939"
   sodipodi:docname="settings.svg">
  <sodipodi:namedview
     pagecolor="#ffffff"
     bordercolor="#666666"
     borderopacity="1"
     objecttolerance="10"
     gridtolerance="10"
     guidetolerance="10"
     inkscape:pageopacity="0"
     inkscape:pageshadow="2"
     inkscape:window-width="1440"
     inkscape:window-height="876"
     id="namedview2995"
     showgrid="true"
     inkscape:zoom="7.375"
     inkscape:cx="24.17284"
     inkscape:cy="28.298718"
     inkscape:window-x="0"
     inkscape:window-y="24"
     inkscape:window-maximized="1"
     inkscape:current-layer="svg3120"
     inkscape:snap-bbox="true">
    <inkscape:grid
       type="xygrid"
       id="grid2988"
       empspacing="5"
       visible="true"
       enabled="true"
       snapvisiblegridlinesonly="true" />
  </sodipodi:namedview>
  <defs
     id="defs3122" />
  <metadata
     id="metadata3125">
    <rdf:RDF>
      <cc:Work
         rdf:about="">
        <dc:format>image/svg+xml</dc:format>
        <dc:type
           rdf:resource="http://purl.org/dc/dcmitype/StillImage" />
        <dc:title />
      </cc:Work>
    </rdf:RDF>
  </metadata>
  <path
     style="fill:#ffffff;fill-opacity:1"
     d="M 33.5 0 A 32.454546 32.590908 0 0 0 0.09375 32.59375 A 32.454546 32.590908 0 0 0 65 32.59375 A 32.454546 32.590908 0 0 0 33.5 0 z M 28 8 L 37 8 L 37 17.6875 A 15.5 15.498066 0 0 1 39.875 18.875 L 46.71875 12.03125 L 53.0625 18.375 L 46.1875 25.25 A 15.5 15.498066 0 0 1 47.3125 28 L 57 28 L 57 37 L 47.34375 37 A 15.5 15.498066 0 0 1 46.125 39.875 L 53.0625 46.8125 L 46.71875 53.15625 L 39.75 46.1875 A 15.5 15.498066 0 0 1 37 47.3125 L 37 57.1875 L 28 57.1875 L 28 47.3125 A 15.5 15.498066 0 0 1 25.25 46.1875 L 18.28125 53.15625 L 11.9375 46.8125 L 18.875 39.875 A 15.5 15.498066 0 0 1 17.6875 37 L 7.8125 37 L 7.8125 28 L 17.6875 28 A 15.5 15.498066 0 0 1 18.8125 25.25 L 11.9375 18.375 L 18.28125 12.03125 L 25.125 18.875 A 15.5 15.498066 0 0 1 28 17.6875 L 28 8 z "
     id="path3131" />
  <path
     d="m 38,32.636364 a 5.454545,5.6363637 0 0 1 -10.90909,0 5.454545,5.6363637 0 1 1 10.90909,0 z"
     id="path4035"
     style="fill:#ffffff;fill-opacity:1"
     inkscape:connector-curvature="0" />
</svg>
