<?xml version="1.0" encoding="UTF-8" standalone="no"?>
<!-- Created with Inkscape (http://www.inkscape.org/) -->

<svg
   xmlns:dc="http://purl.org/dc/elements/1.1/"
   xmlns:cc="http://creativecommons.org/ns#"
   xmlns:rdf="http://www.w3.org/1999/02/22-rdf-syntax-ns#"
   xmlns:svg="http://www.w3.org/2000/svg"
   xmlns="http://www.w3.org/2000/svg"
   xmlns:sodipodi="http://sodipodi.sourceforge.net/DTD/sodipodi-0.dtd"
   xmlns:inkscape="http://www.inkscape.org/namespaces/inkscape"
   version="1.1"
   width="64"
   height="64"
   id="svg2990"
   inkscape:version="0.48.4 r9939"
   sodipodi:docname="sfx.svg">
  <sodipodi:namedview
     pagecolor="#ffffff"
     bordercolor="#666666"
     borderopacity="1"
     objecttolerance="10"
     gridtolerance="10"
     guidetolerance="10"
     inkscape:pageopacity="0"
     inkscape:pageshadow="2"
     inkscape:window-width="1440"
     inkscape:window-height="876"
     id="namedview12"
     showgrid="true"
     inkscape:snap-bbox="true"
     inkscape:zoom="10.429825"
     inkscape:cx="25.164693"
     inkscape:cy="43.519995"
     inkscape:window-x="0"
     inkscape:window-y="24"
     inkscape:window-maximized="1"
     inkscape:current-layer="svg2990">
    <inkscape:grid
       type="xygrid"
       id="grid3111" />
  </sodipodi:namedview>
  <defs
     id="defs2992" />
  <metadata
     id="metadata2995">
    <rdf:RDF>
      <cc:Work
         rdf:about="">
        <dc:format>image/svg+xml</dc:format>
        <dc:type
           rdf:resource="http://purl.org/dc/dcmitype/StillImage" />
        <dc:title />
      </cc:Work>
    </rdf:RDF>
  </metadata>
  <path
     style="fill:#ecf0f1;fill-opacity:1"
     d="M 32 0 C 14.326888 4.7369516e-15 0 14.326888 0 32 C 4.7369516e-15 49.673112 14.326888 64 32 64 C 49.673112 64 64 49.673112 64 32 C 64 14.326888 49.673112 -8.8817842e-15 32 0 z M 33.71875 14.75 C 33.76331 14.73242 33.78125 22.749696 33.78125 32.5625 C 33.78125 42.375305 33.7583 50.3788 33.71875 50.375 C 33.6792 50.3712 31.010447 48.372653 27.78125 45.9375 L 21.90625 41.53125 L 21.90625 32.5 L 21.90625 23.5 L 27.75 19.125 C 30.974605 16.725631 33.67419 14.76758 33.71875 14.75 z M 47.0625 19.625 C 47.110027 19.609743 47.16274 19.61061 47.25 19.625 C 47.366346 19.644186 47.540292 19.69398 47.75 19.75 C 50.212575 20.407811 52.305236 23.657971 53.25 28.25 C 53.628716 30.090749 53.75 31.459921 53.75 33.5625 C 53.75 35.66508 53.628716 37.065501 53.25 38.90625 C 52.248712 43.77301 49.964914 47.044612 47.3125 47.46875 L 46.90625 47.53125 L 46.9375 46.78125 L 46.96875 46.03125 L 47.3125 45.96875 C 49.080597 45.682743 50.814532 43.104086 51.65625 39.5 C 52.15357 37.370571 52.25 36.452766 52.25 33.5625 C 52.25 30.672235 52.153571 29.75443 51.65625 27.625 C 50.826742 24.073198 49.087475 21.447467 47.375 21.15625 L 46.96875 21.09375 L 46.9375 20.34375 C 46.919562 19.869248 46.91992 19.670772 47.0625 19.625 z M 41.84375 23.625 L 42.375 23.65625 C 44.675137 23.893645 46.746036 26.695376 47.53125 30.59375 C 47.838722 32.120265 47.838722 35.004736 47.53125 36.53125 C 46.919198 39.569925 45.599527 41.81958 43.8125 42.9375 C 43.412573 43.187684 42.530998 43.5 42.15625 43.5 L 41.84375 43.5 L 41.875 43 L 41.90625 42.5 L 42.28125 42.40625 C 42.96856 42.286336 43.39254 42.05505 44.03125 41.40625 C 44.777152 40.648567 45.207572 39.941672 45.65625 38.75 C 47.009357 35.156198 46.760863 30.092731 45.0625 27.03125 C 44.854265 26.655884 44.398581 26.08223 44 25.6875 C 43.323148 25.017187 43.011523 24.859094 42.09375 24.65625 C 41.84805 24.60194 41.84375 24.551316 41.84375 24.09375 L 41.84375 23.625 z M 13.84375 23.65625 L 17.34375 23.65625 L 20.84375 23.65625 L 20.84375 32.5625 L 20.84375 41.46875 L 17.34375 41.46875 L 13.84375 41.46875 L 13.84375 32.5625 L 13.84375 23.65625 z M 36.84375 26.59375 L 37.34375 26.65625 C 39.603701 26.956043 41.493311 29.534625 41.75 32.6875 C 41.990747 35.64456 40.962337 38.36618 39.125 39.71875 C 38.577134 40.122066 37.574179 40.5 37.09375 40.5 C 36.89735 40.5 36.84375 40.461499 36.84375 40.1875 C 36.84375 39.878179 36.875058 39.861883 37.375 39.75 C 39.785096 39.210644 41.296661 35.2903 40.53125 31.59375 C 40.057759 29.307026 38.854569 27.723739 37.34375 27.375 C 36.8601 27.263362 36.84375 27.227118 36.84375 26.90625 L 36.84375 26.59375 z "
     id="path3109" />
</svg>
