<?xml version="1.0" encoding="UTF-8" standalone="no"?>
<!-- Created with Inkscape (http://www.inkscape.org/) -->

<svg
   xmlns:dc="http://purl.org/dc/elements/1.1/"
   xmlns:cc="http://creativecommons.org/ns#"
   xmlns:rdf="http://www.w3.org/1999/02/22-rdf-syntax-ns#"
   xmlns:svg="http://www.w3.org/2000/svg"
   xmlns="http://www.w3.org/2000/svg"
   xmlns:sodipodi="http://sodipodi.sourceforge.net/DTD/sodipodi-0.dtd"
   xmlns:inkscape="http://www.inkscape.org/namespaces/inkscape"
   version="1.1"
   width="50"
   height="60"
   id="svg4621"
   inkscape:version="0.48.4 r9939"
   sodipodi:docname="highscore.svg">
  <sodipodi:namedview
     pagecolor="#ffffff"
     bordercolor="#666666"
     borderopacity="1"
     objecttolerance="10"
     gridtolerance="10"
     guidetolerance="10"
     inkscape:pageopacity="0"
     inkscape:pageshadow="2"
     inkscape:window-width="1440"
     inkscape:window-height="876"
     id="namedview17"
     showgrid="false"
     inkscape:zoom="7.8666667"
     inkscape:cx="19.976906"
     inkscape:cy="24.530422"
     inkscape:window-x="0"
     inkscape:window-y="24"
     inkscape:window-maximized="1"
     inkscape:current-layer="layer1" />
  <defs
     id="defs4623" />
  <metadata
     id="metadata4626">
    <rdf:RDF>
      <cc:Work
         rdf:about="">
        <dc:format>image/svg+xml</dc:format>
        <dc:type
           rdf:resource="http://purl.org/dc/dcmitype/StillImage" />
        <dc:title />
      </cc:Work>
    </rdf:RDF>
  </metadata>
  <g
     transform="translate(0,-992.3622)"
     id="layer1">
    <rect
       width="40"
       height="40.000019"
       x="5"
       y="1012.3622"
       id="rect2993"
       style="fill:#3498db;fill-opacity:1" />
    <path
       d="m 9.3812228,1030.513 c 0.05139,0.6494 0.115632,1.3033 0.236312,1.9567 1.7243002,9.3344 10.0287912,15.2891 18.5336072,13.3116 6.89932,-1.6044 11.833486,-7.9494 12.524533,-15.2683 l -31.2944522,0 z"
       id="path3828"
       style="fill:#ecf0f1;fill-opacity:1;fill-rule:evenodd;stroke:none" />
    <path
       d="m 9.3812228,1017.9953 c 0.02467,0.3117 0.0555,0.6256 0.11343,0.9391 0.8276642,4.4806 4.8138212,7.3388 8.8961312,6.3895 3.311674,-0.7699 5.680073,-3.8155 6.011776,-7.3286 l -15.0213372,0 z"
       id="path3828-8"
       style="fill:#ecf0f1;fill-opacity:1;fill-rule:evenodd;stroke:none" />
    <path
       d="m 9.3832328,1018.0016 c 0.02466,0.3117 0.06706,0.624 0.125,0.9375 0.8276622,4.4806 4.7926902,7.3556 8.8750012,6.4063 3.311674,-0.7699 5.699547,-3.8307 6.03125,-7.3438 l -5.84375,0 c 0.103193,0.274 0.15625,0.5649 0.15625,0.875 0,1.3807 -1.119288,2.5 -2.5,2.5 -1.380713,0 -2.5,-1.1193 -2.5,-2.5 0,-0.3101 0.05306,-0.601 0.15625,-0.875 l -4.5000002,0 z"
       id="path3828-8-7-6"
       style="fill:#000000;fill-opacity:1;fill-rule:evenodd;stroke:none" />
    <path
       d="m 25.641275,1017.9388 c 0.02467,0.3117 0.0555,0.6256 0.11343,0.9391 0.827664,4.4806 4.813821,7.3388 8.896131,6.3895 3.311674,-0.7699 5.680073,-3.8155 6.011776,-7.3286 l -15.021337,0 z"
       id="path3828-8-5"
       style="fill:#ecf0f1;fill-opacity:1;fill-rule:evenodd;stroke:none" />
    <path
       d="m 25.643285,1017.9451 c 0.02466,0.3117 0.06706,0.624 0.125,0.9375 0.827662,4.4806 4.79269,7.3556 8.875001,6.4063 3.311674,-0.7699 5.699547,-3.8307 6.03125,-7.3438 l -5.84375,0 c 0.103193,0.274 0.15625,0.5649 0.15625,0.875 0,1.3807 -1.119288,2.5 -2.5,2.5 -1.380713,0 -2.500001,-1.1193 -2.500001,-2.5 0,-0.3101 0.05306,-0.601 0.15625,-0.875 l -4.5,0 z"
       id="path3828-8-7-6-2"
       style="fill:#000000;fill-opacity:1;fill-rule:evenodd;stroke:none" />
    <path
       d="m 16,13 a 3.5,3 0 1 1 -7,0 3.5,3 0 1 1 7,0 z"
       transform="matrix(1,0,0,1.1666667,0,989.69553)"
       id="path3118"
       style="fill:#ffffff;fill-opacity:1" />
    <path
       d="m 16,13 a 3.5,3 0 1 1 -7,0 3.5,3 0 1 1 7,0 z"
       transform="matrix(1,0,0,1.1666667,25,989.69553)"
       id="path3118-6"
       style="fill:#ffffff;fill-opacity:1" />
    <path
       d="m 3.1700802,1003.0024 c -1.2050252,-5.14666 -2.18151594,-9.36711 -2.169979,-9.3789 0.011532,-0.0118 1.9733516,2.27226 4.3595871,5.07559 l 4.33861,5.09711 2.7761947,0 2.776194,0 4.862242,-5.71636 c 2.674231,-3.14402 4.878482,-5.71697 4.898333,-5.71764 0.01984,-6.7e-4 2.227627,2.57222 4.906171,5.71764 l 4.870079,5.71866 2.771313,0 2.77131,0 4.321637,-5.07441 c 2.376901,-2.79092 4.33353,-5.06177 4.348067,-5.04625 0.01453,0.0156 -0.9565,4.22589 -2.157855,9.35636 l -2.184278,9.328 -19.648335,0 -19.6483349,0 -2.1909559,-9.3574 z"
       id="path3116"
       style="fill:#ffd42a;fill-opacity:1" />
    <path
       d="m 18,13.5 a 3.5,4.5 0 1 1 -7,0 3.5,4.5 0 1 1 7,0 z"
       transform="matrix(1.2,0,0,0.98765432,-4.9999999,991.25109)"
       id="path3157"
       style="fill:#3498db;fill-opacity:1" />
    <path
       d="m 18,13.5 a 3.5,4.5 0 1 1 -7,0 3.5,4.5 0 1 1 7,0 z"
       transform="matrix(1.2,0,0,0.98765432,20.2,991.25109)"
       id="path3157-3"
       style="fill:#3498db;fill-opacity:1" />
  </g>
</svg>
